<svg width="476" height="381" viewBox="0 0 476 381" fill="none" xmlns="http://www.w3.org/2000/svg">
<path d="M93.9983 333.49C93.4734 331.915 93.2742 330.247 93.4127 328.592C93.5513 326.937 94.0248 325.327 94.8046 323.862C88.1965 318.213 80.8389 313.506 72.9409 309.871C67.1998 315.877 60.0459 324.514 57.2902 327.419C62.0328 324.289 105.523 355.448 107.23 363.226C108.037 352.508 97.0037 342.91 93.9983 333.49Z" fill="#FACE68"/>
<path d="M220.341 315.993C218.45 313.764 217.483 310.896 217.638 307.978C209.443 306.62 201.111 306.283 192.834 306.98C192.728 309.631 192.478 312.277 192.085 314.9C191.184 320.641 189.903 322.915 189.002 328.274C190.378 323.105 243.78 332.685 246.246 338.661C244.339 327.186 227.123 324.34 220.341 315.993Z" fill="#FACE68"/>
<path d="M446.277 246.846C443.479 244.849 436.792 240.775 428.056 235.558L387.369 244.142L375.422 187.847L382.109 186.424C376.852 151.171 375.839 145.642 371.391 126.856C358.446 140.665 327.142 147.749 313.673 143.977C314.027 145.041 314.289 145.725 315.475 148.578C293.509 196.526 290.102 205.3 289.438 213.173C288.689 222.408 289.675 228.586 307.318 297.118C318.051 300.113 335.991 295.066 341.844 288.865C336.912 267.571 331.885 246.371 326.43 218.627C327.102 216.775 327.896 214.97 328.802 213.22C333.584 199.287 336.672 184.828 338.003 170.157C346.809 210.07 349.397 223.671 355.455 230.436C361.574 237.218 368.685 241.534 427.876 274.867C436.752 272.568 447.81 256.695 446.277 246.846Z" fill="#FACE68"/>
<path d="M106.374 228.823C77.5838 232.375 73.1757 232.885 48.6561 236.08L99.3077 271.545C101.494 269.333 111.751 258.954 113.915 256.7C112.767 253.073 108.199 236.117 106.374 228.823Z" fill="#FACE68"/>
<path d="M66.0168 223.276C66.0168 223.248 66.1116 214.359 66.1116 214.359C63.8249 214.694 61.7584 215.907 60.3506 217.739C58.9427 219.571 58.3042 221.88 58.5708 224.177L59.7565 232.664L67.155 231.715L66.0168 223.276Z" fill="#FACE68"/>
<path d="M97.3569 219.433C97.0841 217.274 96.016 215.297 94.3615 213.884C92.5241 214.533 90.6118 214.947 88.6703 215.117C89.0722 216.864 89.1995 217.483 89.6189 219.575C90.0083 219.965 89.891 219.88 91.0891 228.811L98.4876 227.862L97.3569 219.433Z" fill="#FACE68"/>
<path d="M446.232 251.493C444.253 260.357 439.001 268.147 431.53 273.309C432.279 282.984 436.415 305.038 440.351 310.966C448.089 301.718 458.184 268.424 458.705 255.666C454.659 253.964 450.488 252.569 446.232 251.493Z" fill="#020202" fill-opacity="0.8"/>
<path d="M339.141 291.139C331.378 295.734 322.505 298.111 313.483 298.016C306.377 307.112 300.816 317.316 297.026 328.219C309.258 326.844 336.77 314.513 345.876 305.17C344.134 300.267 341.877 295.565 339.141 291.139Z" fill="#020202" fill-opacity="0.8"/>
<path d="M104.719 364.476C94.1558 361.902 52.9222 334.677 56.9534 327.705C60.5853 323.347 101.549 352.791 106.669 361.99C107.837 364.106 107.248 365.095 104.719 364.476Z" fill="#020202" fill-opacity="0.8"/>
<path d="M222.959 330.403C208.032 327.3 191.133 325.491 189.194 328.002C185.04 333.373 214.932 338.486 221.681 339.362C232.839 340.824 243.18 341.204 245.764 339.888C251.083 337.19 229.162 331.698 222.959 330.403Z" fill="#020202" fill-opacity="0.8"/>
<path d="M227.118 313.335C227.023 311.627 224.746 309.446 217.68 308.023C217.502 310.946 218.472 313.821 220.383 316.038C225.173 316.038 227.213 314.757 227.118 313.335Z" fill="#020202" fill-opacity="0.8"/>
<path d="M185.527 310.681C185.337 312.721 187.756 314.144 192.119 314.95C192.499 312.294 192.736 309.685 192.868 307.03C187.851 307.646 185.717 308.987 185.527 310.681Z" fill="#020202" fill-opacity="0.8"/>
<path d="M72.936 309.824C70.8967 311.911 68.443 314.709 65.9643 317.507C62.265 314.472 60.972 311.057 62.3125 309.255L62.597 308.923C63.9724 307.642 67.3397 307.5 72.936 309.824Z" fill="#020202" fill-opacity="0.8"/>
<path d="M94.8572 323.868C100.738 328.895 102.975 332.604 102.208 334.207C101.552 335.585 98.6988 335.535 94.0035 333.495C93.4579 331.92 93.2519 330.25 93.3992 328.59C93.5462 326.93 94.0432 325.32 94.8572 323.868Z" fill="#020202" fill-opacity="0.8"/>
<path d="M314.517 146.296C311.416 137.625 314.197 146.121 306.312 123.816C307.602 133.211 308.094 142.699 307.782 152.177C310.638 149.758 312.962 147.672 314.517 146.296Z" fill="#020202" fill-opacity="0.8"/>
<path d="M369.679 119.882C358.06 133.111 324.25 141.698 311.155 137.382C312.056 139.848 312.902 142.125 313.621 144.022C327.38 147.873 358.614 140.427 371.339 126.853C370.773 124.482 370.251 122.111 369.679 119.882Z" fill="#020202" fill-opacity="0.8"/>
<path d="M338.005 170.158C336.674 184.83 333.587 199.288 328.804 213.222C331.27 208.337 335.396 201.318 342.034 188.418L338.005 170.158Z" fill="#020202" fill-opacity="0.8"/>
<path d="M422.661 146.064C421.723 144.08 420.959 142.017 420.385 139.899C423.255 140.021 424.783 140.727 425.377 141.646C426.468 143.318 424.758 145.383 422.661 146.064Z" fill="#020202" fill-opacity="0.8"/>
<path d="M399.042 144.308C395.627 145.873 394.299 147.439 394.347 148.577C394.489 150.047 396.291 150.996 399.564 150.426C400.328 148.901 399.354 145.988 399.042 144.308Z" fill="#020202" fill-opacity="0.8"/>
<path d="M365.367 102.856C361.241 102.287 355.929 101.717 348.958 101.054C355.562 104.466 361.903 108.366 367.928 112.72C366.935 108.831 366.031 105.417 365.367 102.856Z" fill="#020202" fill-opacity="0.8"/>
<path d="M314.768 52.1609C313.872 55.3542 312.526 58.404 310.774 61.2194C310.869 59.8915 310.869 58.2241 311.011 56.1448C312.062 55.054 313.295 53.726 314.768 52.1609Z" fill="#020202" fill-opacity="0.8"/>
<path d="M310.969 31.5751C310.684 28.2552 309.593 27.5813 300.013 26.9747C289.864 26.2633 289.105 27.9232 290.148 33.3299C290.86 36.9817 292.757 38.0251 296.598 38.0251C298.97 38.0251 302.09 37.5983 306.036 37.1714C309.072 41.013 311.064 43.0049 311.064 40.681C311.064 36.2703 315.664 36.3652 315.759 43.4267C317.466 45.174 319.363 47.2683 321.403 49.3076C319.316 32.5236 318.889 32.2865 310.969 31.5751Z" fill="#020202" fill-opacity="0.8"/>
<path d="M315.618 77.5822C316.746 75.9045 317.685 74.1071 318.416 72.223C316.993 70.1836 315.713 68.0494 314.422 65.8204C313.569 67.8173 312.675 69.8516 311.909 71.8436C312.281 73.8315 312.952 75.7508 313.906 77.5347C313.336 82.8939 310.396 121.262 310.396 123.776C311.996 127.103 313.968 130.238 316.277 133.119C318.85 130.317 321.137 127.267 323.106 124.013C322.163 116.899 316.377 80.1432 315.618 77.5822Z" fill="#020202" fill-opacity="0.8"/>
<path d="M255.814 153.937C256.671 153.325 258.423 153.605 260.937 155.265C258.802 157.067 257.569 158.158 256.668 158.917C254.724 156.498 254.679 154.748 255.814 153.937Z" fill="#020202" fill-opacity="0.8"/>
<path d="M275.969 172.145C277.439 174.891 277.716 176.698 277.202 177.599C277.167 177.697 277.099 177.78 277.012 177.836C276.158 178.737 273.929 178.263 271.463 176.129C273.218 174.564 275.969 172.145 275.969 172.145Z" fill="#020202" fill-opacity="0.8"/>
<path d="M64.8764 193.676C64.7815 195.052 64.7341 196.569 64.7341 198.135C61.2719 198.277 59.637 197.663 59.5646 196.759C59.4972 195.908 61.2245 194.672 64.8764 193.676Z" fill="#020202" fill-opacity="0.8"/>
<path d="M91.5283 193.584C91.6706 194.437 90.4375 195.481 86.6908 196.05C85.9093 194.732 85.5299 193.217 85.6 191.686C89.3942 191.916 91.3861 192.73 91.5283 193.584Z" fill="#020202" fill-opacity="0.8"/>
<path d="M147.395 131.17C146.307 144.477 145.92 158.57 145.648 164.985C123.976 165.507 105.672 168.874 97.2776 175.04C97.325 177.601 97.3724 180.114 97.5147 182.528C110.133 173.387 137.66 171.815 153.288 171.525C150.735 162.065 148.788 144.033 147.395 131.17Z" fill="#020202" fill-opacity="0.8"/>
<path d="M99.3061 141.843C99.0215 144.309 98.7844 146.728 98.5947 149.052C96.3182 149.801 93.3304 150.757 90.3899 151.66C87.3072 152.606 84.2719 153.462 82.1851 154.079C88.0952 150.292 93.8096 146.208 99.3061 141.843Z" fill="#020202" fill-opacity="0.8"/>
<path d="M162.812 87.964C162.662 88.2032 162.487 88.4258 162.291 88.628C161.128 89.8386 157.418 89.6739 154.098 89.1522C153.388 87.1708 153 85.0885 152.948 82.9842C157.026 87.0629 161.2 90.2879 162.812 87.964Z" fill="#020202" fill-opacity="0.8"/>
<path d="M164.042 55.052C164.327 49.8351 157.829 50.8785 157.303 53.8189C156.912 53.1335 156.307 52.5951 155.581 52.2863C154.855 51.9773 154.048 51.9151 153.283 52.1088C152.518 52.3025 151.838 52.7416 151.347 53.3589C150.856 53.9762 150.58 54.7375 150.563 55.5263C148.239 52.7805 143.496 53.779 144.303 57.945C141.03 54.7674 132.636 56.6645 146.05 82.3223C148.848 79.9509 151.409 77.627 153.638 75.5403C149.844 69.612 154.207 66.8038 156.152 70.6553C157.195 72.6947 159.147 72.505 158.898 66.7664C160.431 66.371 161.924 65.8311 163.356 65.1539C166.183 63.9033 168.588 61.8607 170.28 59.273C172.769 55.2891 167.979 50.5465 164.042 55.052Z" fill="#020202" fill-opacity="0.8"/>
<path d="M151.899 226.592C154.792 250.733 155.503 259.601 155.361 264.629C149.571 248.266 142.871 232.241 135.292 216.628C139.853 219.478 145.354 222.703 151.899 226.592Z" fill="#020202" fill-opacity="0.8"/>
<path d="M427.496 166.17L429.338 174.942L436.642 173.377L434.46 163.18C434.078 161.421 433.077 159.857 431.642 158.77C430.207 157.683 428.432 157.144 426.635 157.252C427.291 160.177 427.578 163.173 427.496 166.17Z" fill="#020202" fill-opacity="0.8"/>
<path d="M402.216 162.374L401.742 162.469C400.773 162.667 399.852 163.056 399.034 163.613C398.217 164.17 397.518 164.885 396.979 165.715C396.443 166.545 396.073 167.474 395.899 168.447C395.721 169.421 395.741 170.419 395.956 171.385L398.043 181.582L405.346 180.017C405.262 179.61 402.496 163.208 402.216 162.374Z" fill="#020202" fill-opacity="0.8"/>
<path d="M427.496 166.17L429.625 176.266L436.929 174.701L434.46 163.18C434.078 161.421 433.077 159.857 431.642 158.77C430.207 157.683 428.432 157.144 426.635 157.252C427.291 160.177 427.578 163.173 427.496 166.17Z" fill="#020202" fill-opacity="0.8" stroke="black" stroke-width="1.5" stroke-linejoin="round"/>
<path d="M402.216 162.374L401.742 162.469C400.773 162.667 399.852 163.056 399.034 163.613C398.217 164.171 397.518 164.885 396.979 165.715C396.443 166.545 396.073 167.474 395.899 168.447C395.721 169.421 395.741 170.42 395.956 171.385L398.302 182.964L405.606 181.399C405.521 180.992 402.496 163.208 402.216 162.374Z" fill="#020202" fill-opacity="0.8" stroke="black" stroke-width="1.5" stroke-linejoin="round"/>
<path d="M62.5493 185.947C64.399 185.096 64.399 189.172 62.8813 189.646C61.3637 190.121 61.4086 186.471 62.5493 185.947Z" fill="#020202" fill-opacity="0.8"/>
<path d="M212.655 188.037C213.619 186.195 217.533 186.419 216.734 188.227C215.935 190.034 211.487 190.276 212.655 188.037Z" fill="#020202" fill-opacity="0.8"/>
<path d="M279.714 169.919C280.093 171.864 283.583 169.17 282.986 167.548C282.39 165.925 279.287 167.737 279.714 169.919Z" fill="#020202" fill-opacity="0.8"/>
<path d="M418.439 130.649C420.289 130.627 421.435 134.87 419.151 134.823C416.867 134.775 416.447 130.671 418.439 130.649Z" fill="#020202" fill-opacity="0.8"/>
<path d="M461.645 172.946L462.119 204.148C462.124 204.303 462.074 204.453 461.979 204.575C461.885 204.695 461.747 204.779 461.598 204.812L450.689 207.136L452.16 213.965L445.093 215.483L443.623 208.654L407.199 216.392L408.67 223.221L401.603 224.739L400.135 217.914L389.227 220.238C389.08 220.258 388.928 220.231 388.795 220.163C388.66 220.096 388.551 219.988 388.478 219.859L376.247 191.153L387.48 244.176L472.99 226.012L461.645 172.946Z" fill="#020202" fill-opacity="0.8"/>
<path d="M460.27 169.774L376.088 187.701L389.367 218.861L399.801 216.631L398.378 209.992L405.445 208.474L406.868 215.114L443.291 207.383L441.916 200.744L448.982 199.226L450.405 205.866L460.791 203.684L460.27 169.774Z" fill="#020202" fill-opacity="0.8"/>
<path d="M387.477 244.177L375.433 187.84L460.931 169.628L472.987 226.012L387.477 244.177Z" fill="#020202" fill-opacity="0.8" stroke="black" stroke-width="1.5" stroke-linecap="round" stroke-linejoin="round"/>
<path d="M390.008 184.697L396.71 175.183" stroke="black" stroke-width="1.5" stroke-linecap="round" stroke-linejoin="round"/>
<path d="M424.317 135.868L475.016 63.448L385.475 0.750064L342.838 61.5983" stroke="black" stroke-width="1.5" stroke-linecap="round" stroke-linejoin="round"/>
<path d="M335.725 262.403L356.972 232.003" stroke="black" stroke-width="1.5" stroke-linecap="round" stroke-linejoin="round"/>
<path d="M135.817 297.118L253.624 379.593L310.916 297.829" stroke="black" stroke-width="1.5" stroke-linecap="round" stroke-linejoin="round"/>
<path d="M76.5851 122.21L63.4479 113.009L0.75 202.55L99.3024 271.556" stroke="black" stroke-width="1.5" stroke-linecap="round" stroke-linejoin="round"/>
<path d="M249.692 194.63L226.785 227.354L218.77 221.758" stroke="black" stroke-width="1.5" stroke-linecap="round" stroke-linejoin="round"/>
<path d="M190.031 78.7697L216.4 41.0656L241.299 58.4711L270.704 16.546" stroke="black" stroke-width="1.5" stroke-linecap="round" stroke-linejoin="round"/>
<path d="M252.16 19.771L270.704 16.546L273.976 35.0424" stroke="black" stroke-width="1.5" stroke-linecap="round" stroke-linejoin="round"/>
<path d="M74.5933 71.9399L91.6668 68.9046C101.829 67.0575 98.9206 52.0208 89.0109 53.823L79.4782 55.4355C69.3264 57.1653 66.9002 42.0462 76.8223 40.3538L93.8959 37.3185" stroke="black" stroke-width="1.5" stroke-linecap="round" stroke-linejoin="round"/>
<path d="M80.5668 33.8988L87.918 75.3496" stroke="black" stroke-width="1.5" stroke-linecap="round" stroke-linejoin="round"/>
<path d="M244.145 259.463L264.728 255.811" stroke="black" stroke-width="1.5" stroke-linecap="round" stroke-linejoin="round"/>
<path d="M252.632 247.32L256.236 267.951" stroke="black" stroke-width="1.5" stroke-linecap="round" stroke-linejoin="round"/>
<path d="M372.525 298.591L401.313 293.516" stroke="black" stroke-width="1.5" stroke-linecap="round" stroke-linejoin="round"/>
<path d="M384.383 281.658L389.458 310.493" stroke="black" stroke-width="1.5" stroke-linecap="round" stroke-linejoin="round"/>
<path d="M145.637 359.343C149.33 359.343 152.324 356.35 152.324 352.655C152.324 348.961 149.33 345.968 145.637 345.968C141.944 345.968 138.95 348.961 138.95 352.655C138.95 356.35 141.944 359.343 145.637 359.343Z" stroke="black" stroke-width="1.5" stroke-linecap="round" stroke-linejoin="round"/>
<path d="M83.3205 287.772L46.5175 292.372L39.6406 237.208L106.417 228.863" stroke="black" stroke-width="1.5" stroke-linecap="round" stroke-linejoin="round"/>
<path d="M163.334 65.24C166.203 63.9984 168.643 61.9391 170.348 59.3191C172.767 55.3253 168.072 50.5452 164.088 55.0982C164.373 49.8338 157.923 50.9247 157.349 53.8651C156.954 53.1852 156.349 52.6522 155.625 52.3472C154.9 52.0422 154.096 51.9815 153.334 52.1745C152.572 52.3677 151.894 52.8037 151.402 53.4168C150.911 54.0301 150.632 54.7867 150.609 55.5724C148.285 52.8267 143.542 53.8252 144.349 57.9912C141.076 54.8136 132.682 56.7107 146.096 82.3685" stroke="black" stroke-width="1.5" stroke-linecap="round" stroke-linejoin="round"/>
<path d="M154.094 89.1547C153.397 87.1715 153.024 85.0888 152.99 82.9868C156.735 86.7684 160.626 89.8561 162.461 88.4358" stroke="black" stroke-width="1.5" stroke-linecap="round" stroke-linejoin="round"/>
<path d="M101.96 120.549C96.791 158.68 95.6303 180.311 99.8263 200.889C103.648 219.628 110.45 244.948 113.959 256.758C97.6447 273.404 65.6792 305.322 62.3119 309.306" stroke="black" stroke-width="1.5" stroke-linecap="round" stroke-linejoin="round"/>
<path d="M65.9627 317.556C62.2634 314.521 60.9904 311.114 62.3109 309.304C64.173 306.753 71.4692 307.445 85.7396 317.042C98.36 325.529 103.3 331.939 102.197 334.265C101.54 335.643 98.687 335.593 93.9918 333.554" stroke="black" stroke-width="1.5" stroke-linecap="round" stroke-linejoin="round"/>
<path d="M192.07 314.951C187.707 314.145 185.266 312.72 185.478 310.683C185.78 307.787 191.833 305.985 207.721 306.889C222.698 307.74 226.941 310.965 227.118 313.339C227.223 314.761 225.174 316.042 220.336 316.042" stroke="black" stroke-width="1.5" stroke-linecap="round" stroke-linejoin="round"/>
<path d="M102.15 334.199C151.711 280.323 153.87 276.858 155.068 267.992C155.72 263.199 155.543 257.179 151.891 226.541" stroke="black" stroke-width="1.5" stroke-linecap="round" stroke-linejoin="round"/>
<path d="M57.0001 327.756C60.0379 322.539 110.592 359.058 107.083 364.322C104.342 368.448 52.4971 335.489 57.0001 327.756Z" stroke="black" stroke-width="1.5" stroke-linecap="round" stroke-linejoin="round"/>
<path d="M188.989 328.423C189.45 322.732 247.178 333.261 246.327 339.189C245.661 343.837 188.307 336.815 188.989 328.423Z" stroke="black" stroke-width="1.5" stroke-linecap="round" stroke-linejoin="round"/>
<path d="M72.932 309.83C67.8573 315.094 59.7474 324.807 56.9966 327.71" stroke="black" stroke-width="1.5" stroke-linecap="round" stroke-linejoin="round"/>
<path d="M94.8541 323.867C87.5978 337.004 109.367 349.477 107.085 364.322" stroke="black" stroke-width="1.5" stroke-linecap="round" stroke-linejoin="round"/>
<path d="M188.986 328.418C190.219 320.972 192.211 319.502 192.875 307.029" stroke="black" stroke-width="1.5" stroke-linecap="round" stroke-linejoin="round"/>
<path d="M217.678 308.029C216.929 323.632 244.474 324.154 246.371 339.188" stroke="black" stroke-width="1.5" stroke-linecap="round" stroke-linejoin="round"/>
<path d="M185.523 310.681C186.139 295.03 184.242 252.821 183.483 245.944C137.669 216.587 120.027 211.085 117.181 198.138" stroke="black" stroke-width="1.5" stroke-linecap="round" stroke-linejoin="round"/>
<path d="M227.119 313.339C224.226 237.267 223.374 228.448 217.396 219.529C211.558 210.805 206.725 207.103 181.257 191.5" stroke="black" stroke-width="1.5" stroke-linecap="round" stroke-linejoin="round"/>
<path d="M59.5602 196.767C56.7146 158.779 57.0017 143.997 63.0698 135.01C71.8062 122.113 97.1695 108.117 123.871 101.063C157.401 92.1918 171.013 93.4273 177.131 98.9288C182.123 103.437 183.621 110.506 185.098 157.351C194.274 158.437 215.596 161.008 219.909 161.769C226.027 167.128 227.071 185.482 219.909 192.264C186.426 192.264 171.15 191.892 164.42 187.664C154.026 181.132 152.089 174.906 147.347 131.226C146.258 144.508 145.832 158.542 145.599 164.974" stroke="black" stroke-width="1.5" stroke-linecap="round" stroke-linejoin="round"/>
<path d="M182.345 157.023L185.091 157.347" stroke="black" stroke-width="1.5" stroke-linecap="round" stroke-linejoin="round"/>
<path d="M64.6804 198.143C61.2182 198.238 59.6007 197.669 59.5109 196.768C59.3636 195.297 64.301 192.961 74.8771 191.93C85.6903 190.874 91.2393 192.12 91.4764 193.543C91.6187 194.396 90.3856 195.44 86.6389 196.009" stroke="black" stroke-width="1.5" stroke-linecap="round" stroke-linejoin="round"/>
<path d="M98.5983 149.052C93.9031 150.617 86.22 152.941 82.1887 154.044C88.1168 150.301 93.8324 146.231 99.3097 141.855" stroke="black" stroke-width="1.5" stroke-linecap="round" stroke-linejoin="round"/>
<path d="M91.5246 193.59C91.0503 183.631 90.3864 162.431 90.3864 151.655" stroke="black" stroke-width="1.5" stroke-linecap="round" stroke-linejoin="round"/>
<path d="M58.6609 183.864C62.787 177.935 86.9745 175.849 90.9584 179.87" stroke="black" stroke-width="1.5" stroke-linecap="round" stroke-linejoin="round"/>
<path d="M205.823 159.869C211.799 165.323 211.23 186.049 203.642 192.214" stroke="black" stroke-width="1.5" stroke-linecap="round" stroke-linejoin="round"/>
<path d="M97.4995 182.535C107.267 175.471 127.743 171.867 153.246 171.532" stroke="black" stroke-width="1.5" stroke-linecap="round" stroke-linejoin="round"/>
<path d="M97.2617 175.044C106.41 168.304 127.465 164.897 151.77 164.895" stroke="black" stroke-width="1.5" stroke-linecap="round" stroke-linejoin="round"/>
<path d="M85.5975 191.643C85.5194 193.356 86.0206 195.043 87.0203 196.434C87.7691 197.382 92.7614 201.833 93.8497 203.453C95.0479 205.247 95.6519 212.796 94.7034 213.602C93.4703 214.648 85.1707 215.499 81.8508 215.499C79.4795 215.499 80.0486 211.468 87.874 209.476C81.384 209.855 77.0133 207.958 75.9225 202.314" stroke="black" stroke-width="1.5" stroke-linecap="round" stroke-linejoin="round"/>
<path d="M64.8667 193.682C64.4876 200.654 64.6144 207.643 65.2461 214.597" stroke="black" stroke-width="1.5" stroke-linecap="round" stroke-linejoin="round"/>
<path d="M71.5573 215.214C71.3076 210.898 76.4497 210.329 76.9639 214.465C77.3483 217.548 77.538 219.729 77.7701 222.203C77.9274 222.952 77.7809 223.73 77.3628 224.372C76.9447 225.011 76.2894 225.46 75.5411 225.618C74.7927 225.775 74.0125 225.628 73.372 225.211C72.7317 224.791 72.2836 224.137 72.1264 223.388C71.7969 220.675 71.6069 217.947 71.5573 215.214Z" stroke="black" stroke-width="1.5" stroke-linecap="round" stroke-linejoin="round"/>
<path d="M88.6772 215.025C89.1041 217.022 89.4485 218.627 89.8155 220.384C89.9897 221.095 89.8874 221.847 89.5292 222.483C89.171 223.122 88.5836 223.601 87.886 223.824C87.1885 224.046 86.4325 223.993 85.7712 223.679C85.11 223.367 84.5928 222.813 84.324 222.131C83.7706 219.947 83.3585 217.728 83.0909 215.491" stroke="black" stroke-width="1.5" stroke-linecap="round" stroke-linejoin="round"/>
<path d="M66.1052 215.214C66.1052 211.04 71.0975 210.756 71.3696 214.787C71.5693 217.782 71.6192 219.909 71.7016 222.275C71.7929 223.002 71.5975 223.733 71.1569 224.317C70.7163 224.901 70.0654 225.29 69.3425 225.4C68.6196 225.513 67.8817 225.338 67.2859 224.914C66.6903 224.489 66.2837 223.848 66.1527 223.129C65.918 221.142 66.1052 219.008 66.1052 215.214Z" stroke="black" stroke-width="1.5" stroke-linecap="round" stroke-linejoin="round"/>
<path d="M82.9858 215.498C83.3652 217.775 83.6099 219.577 83.8869 221.569C84.0547 222.315 83.9261 223.096 83.528 223.748C83.1298 224.399 82.4936 224.871 81.7537 225.061C81.0141 225.253 80.2291 225.148 79.5651 224.771C78.9009 224.394 78.4099 223.773 78.1957 223.039C77.7409 220.291 77.4244 217.52 77.2472 214.739C76.8628 211.04 80.4722 209.902 82.0847 212.083" stroke="black" stroke-width="1.5" stroke-linecap="round" stroke-linejoin="round"/>
<path d="M243.956 190.17C244.515 186.231 240.095 185.091 239.119 188.795C238.732 190.263 238.22 192.257 237.886 193.787C237.71 194.461 237.807 195.18 238.155 195.784C238.505 196.388 239.076 196.83 239.748 197.017C240.419 197.204 241.138 197.12 241.747 196.78C242.356 196.443 242.81 195.879 243.008 195.21C243.409 193.548 243.726 191.865 243.956 190.17Z" stroke="black" stroke-width="1.5" stroke-linecap="round" stroke-linejoin="round"/>
<path d="M238.925 188.983C239.946 185.064 235.303 183.619 234.088 187.323C233.606 188.791 232.929 190.875 232.617 191.923C231.507 195.65 236.559 197.285 237.597 194.01C238.169 192.208 238.616 190.169 238.925 188.983Z" stroke="black" stroke-width="1.5" stroke-linecap="round" stroke-linejoin="round"/>
<path d="M233.804 187.85C234.999 184.091 230.873 182.496 229.156 185.953C228.684 186.904 227.958 188.604 227.306 190.316C226.992 190.945 226.94 191.674 227.162 192.341C227.385 193.007 227.863 193.559 228.492 193.873C229.121 194.188 229.849 194.24 230.516 194.018C231.183 193.796 231.734 193.317 232.049 192.688C232.558 191.592 233.412 189.078 233.804 187.85Z" stroke="black" stroke-width="1.5" stroke-linecap="round" stroke-linejoin="round"/>
<path d="M248.931 190.886C249.059 187.044 244.888 186.143 244.189 189.795C243.899 191.313 243.465 194.288 243.382 195.107C243.412 195.718 243.657 196.297 244.074 196.747C244.491 197.193 245.052 197.481 245.659 197.553C246.268 197.628 246.882 197.483 247.394 197.149C247.905 196.814 248.282 196.31 248.457 195.723C248.707 194.121 248.864 192.506 248.931 190.886Z" stroke="black" stroke-width="1.5" stroke-linecap="round" stroke-linejoin="round"/>
<path d="M211.513 307.222C209.516 242.77 210.233 232.241 205.538 225.269C198.895 215.405 190.918 211.016 153.843 189.035C147.77 185.436 145.97 181.4 145.685 171.812" stroke="black" stroke-width="1.5" stroke-linecap="round" stroke-linejoin="round"/>
<path d="M135.289 216.591C142.844 232.23 149.544 248.267 155.358 264.634" stroke="black" stroke-width="1.5" stroke-linecap="round" stroke-linejoin="round"/>
<path d="M296.646 37.9797C299.918 56.7007 300.867 59.5088 303.807 59.8433C306.7 60.1728 308.502 58.9896 314.81 52.1602C314.104 55.4401 312.761 58.5493 310.856 61.311" stroke="black" stroke-width="1.5" stroke-linecap="round" stroke-linejoin="round"/>
<path d="M310.964 31.5776C310.632 28.3052 309.541 27.6412 300.056 26.9772C289.907 26.2658 289.148 27.9258 290.191 33.3324C291.282 39.2607 295.645 38.3122 306.032 37.174C309.067 41.0155 311.059 43.0549 311.059 40.6835C311.059 36.2729 315.659 36.3677 315.754 43.4293C317.389 45.7192 319.286 47.8132 321.4 49.6696C319.311 32.8606 318.889 32.289 310.964 31.5776Z" stroke="black" stroke-width="1.5" stroke-linecap="round" stroke-linejoin="round"/>
<path d="M310.973 56.1564C311.295 60.3999 310.763 65.5419 307.695 67.2892C298.732 72.4587 295.132 74.548 292.092 78.8613C286.269 87.121 286.638 92.615 285.547 129.323C274.544 138.808 260.836 149.479 255.811 153.985" stroke="black" stroke-width="1.5" stroke-linecap="round" stroke-linejoin="round"/>
<path d="M256.662 158.92C254.665 156.501 254.665 154.759 255.808 153.987C257.383 152.914 261.919 154.656 268.851 162.572C276.289 171.058 278.179 175.938 277.198 177.653C276.524 178.834 274.115 178.507 271.457 176.183" stroke="black" stroke-width="1.5" stroke-linecap="round" stroke-linejoin="round"/>
<path d="M399.607 150.428C396.335 150.997 394.515 150.051 394.39 148.579C394.226 146.637 398 143.619 408.95 141.227C421.239 138.547 425.385 140.229 425.644 142.366C425.632 143.229 425.33 144.063 424.788 144.734C424.244 145.405 423.49 145.874 422.649 146.065" stroke="black" stroke-width="1.5" stroke-linecap="round" stroke-linejoin="round"/>
<path d="M394.391 148.628C386.471 114.054 385.655 110.507 382.392 108.125C377.924 104.866 374.804 103.573 348.909 101.154C355.514 104.566 361.854 108.466 367.88 112.821" stroke="black" stroke-width="1.5" stroke-linecap="round" stroke-linejoin="round"/>
<path d="M428.014 235.56C436.751 240.825 443.475 244.856 446.274 246.848C447.933 257.332 435.745 273.217 427.872 274.877C368.684 241.536 361.575 237.215 355.452 230.446C349.623 223.991 347.579 213.514 337.951 170.214C335.852 170.09 333.785 169.625 331.833 168.839" stroke="black" stroke-width="1.5" stroke-linecap="round" stroke-linejoin="round"/>
<path d="M365.363 102.906C368.019 113.055 374.135 136.674 376.983 153.7C378.545 163.043 380.445 175.666 382.105 186.424" stroke="black" stroke-width="1.5" stroke-linecap="round" stroke-linejoin="round"/>
<path d="M298.872 84.9311C298.325 90.1972 298.325 95.5055 298.872 100.772C299.264 104.381 312.578 141.708 315.471 148.578C293.505 196.431 290.063 205.3 289.434 213.125C288.685 222.361 289.671 228.539 307.314 297.07C318.08 300.248 336.718 294.557 341.793 288.818C336.861 267.523 331.833 246.276 326.379 218.579C328.229 213.267 332.497 206.77 341.983 188.376" stroke="black" stroke-width="1.5" stroke-linecap="round" stroke-linejoin="round"/>
<path d="M446.231 251.447C450.494 252.552 454.678 253.945 458.751 255.62C458.23 268.378 448.128 301.671 440.397 310.919C436.461 304.991 432.335 282.938 431.576 273.263" stroke="black" stroke-width="1.5" stroke-linecap="round" stroke-linejoin="round"/>
<path d="M339.091 291.096C341.827 295.524 344.086 300.229 345.831 305.134C336.725 314.477 309.217 326.808 296.981 328.184C300.82 317.315 306.377 307.131 313.438 298.02" stroke="black" stroke-width="1.5" stroke-linecap="round" stroke-linejoin="round"/>
<path d="M277.153 177.734C287.26 169.899 308.06 152.109 314.575 146.255" stroke="black" stroke-width="1.5" stroke-linecap="round" stroke-linejoin="round"/>
<path d="M266.718 144.881C275.587 145.592 288.108 162.049 287.206 169.638" stroke="black" stroke-width="1.5" stroke-linecap="round" stroke-linejoin="round"/>
<path d="M391.399 135.491C394.749 128.225 417.721 123.822 422.578 127.753" stroke="black" stroke-width="1.5" stroke-linecap="round" stroke-linejoin="round"/>
<path d="M310.637 62.5004C311.681 63.8616 313.006 64.9786 314.526 65.7728C320.085 63.3631 325.312 60.2516 330.08 56.5147" stroke="black" stroke-width="1.5" stroke-linecap="round" stroke-linejoin="round"/>
<path d="M332.927 58.3288C330.93 64.8736 323.963 74.7384 322.303 76.92C319.198 73.6218 316.577 69.9006 314.516 65.8671C312.738 69.5424 311.338 73.3897 310.342 77.3493C309.426 73.0255 309.344 68.5662 310.105 64.2122" stroke="black" stroke-width="1.5" stroke-linecap="round" stroke-linejoin="round"/>
<path d="M312.02 71.8547C312.399 73.8406 313.071 75.7586 314.017 77.5459C313.448 82.8576 310.507 121.228 310.507 123.787C312.09 127.124 314.064 130.26 316.388 133.13C318.937 130.321 321.208 127.271 323.17 124.024C322.222 116.91 316.431 80.1543 315.682 77.5958C316.773 75.9057 317.694 74.1102 318.427 72.2366" stroke="black" stroke-width="1.5" stroke-linecap="round" stroke-linejoin="round"/>
<path d="M311.204 137.388C324.199 141.704 358.014 133.119 369.681 119.887" stroke="black" stroke-width="1.5" stroke-linecap="round" stroke-linejoin="round"/>
<path d="M313.67 144.027C327.376 147.916 359.246 140.283 371.388 126.906" stroke="black" stroke-width="1.5" stroke-linecap="round" stroke-linejoin="round"/>
<path d="M307.838 152.186C308.152 142.708 307.661 133.22 306.368 123.825" stroke="black" stroke-width="1.5" stroke-linecap="round" stroke-linejoin="round"/>
<path d="M337.953 170.112C336.623 184.783 333.535 199.242 328.752 213.175" stroke="black" stroke-width="1.5" stroke-linecap="round" stroke-linejoin="round"/>
<path d="M327.28 144.832C330.026 156.404 330.173 157.495 334.204 157.258" stroke="black" stroke-width="1.5" stroke-linecap="round" stroke-linejoin="round"/>
<path d="M417.06 237.885C429.865 245.995 441.437 253.298 445.136 255.67" stroke="black" stroke-width="1.5" stroke-linecap="round" stroke-linejoin="round"/>
<path d="M361.569 134.446C367.165 158.159 373.52 190.125 375.512 211.277C376.793 212.178 378.737 213.458 381.203 215.071" stroke="black" stroke-width="1.5" stroke-linecap="round" stroke-linejoin="round"/>
<path d="M260.933 155.267C256.332 159.109 256 159.97 254.008 160.057C249.313 160.264 245.342 158.739 243.717 160.531C240.669 164.068 237.864 167.808 235.322 171.724C233.276 174.72 238.879 176.799 245.756 168.831C247.783 169.881 250.007 170.496 252.286 170.635C254.565 170.774 256.847 170.434 258.986 169.637" stroke="black" stroke-width="1.5" stroke-linecap="round" stroke-linejoin="round"/>
<path d="M222.564 165.461C228.493 166.315 229.721 166.592 231.433 165.603C235.499 163.259 237.174 160.361 239.496 161.05C240.447 161.327 241.393 161.62 242.389 161.952" stroke="black" stroke-width="1.5" stroke-linecap="round" stroke-linejoin="round"/>
<path d="M275.918 172.151C273.831 174.001 268.804 178.459 266.682 180.545" stroke="black" stroke-width="1.5" stroke-linecap="round" stroke-linejoin="round"/>
<path d="M254.436 170.63C266.767 176.985 269.091 181.064 264.965 184.81" stroke="black" stroke-width="1.5" stroke-linecap="round" stroke-linejoin="round"/>
<path d="M257.47 179.502C264.537 183.106 266.706 185.138 264.442 188.238C263.157 189.985 261.407 190.04 254.72 185.393" stroke="black" stroke-width="1.5" stroke-linecap="round" stroke-linejoin="round"/>
<path d="M222.187 189.425C224.036 189.615 226.265 189.9 227.451 190.089" stroke="black" stroke-width="1.5" stroke-linecap="round" stroke-linejoin="round"/>
<path d="M251.779 189.7C254.055 191.217 259.225 196.15 261.643 189.178" stroke="black" stroke-width="1.5" stroke-linecap="round" stroke-linejoin="round"/>
<path d="M248.649 194.393C250.736 194.914 254.53 196.242 255.905 192.396" stroke="black" stroke-width="1.5" stroke-linecap="round" stroke-linejoin="round"/>
<path d="M420.379 139.852C421.564 145.022 424.787 148.958 426.869 158.074C427.533 161.624 427.645 165.255 427.201 168.84C427.008 169.322 426.716 169.758 426.342 170.119C425.968 170.48 425.523 170.757 425.034 170.932C424.545 171.107 424.023 171.176 423.506 171.134C422.99 171.092 422.485 170.941 422.031 170.689" stroke="black" stroke-width="1.5" stroke-linecap="round" stroke-linejoin="round"/>
<path d="M422.135 163.898C422.325 165.964 422.325 168.044 422.135 170.111C421.898 172.295 419.285 174.192 416.145 172.108" stroke="black" stroke-width="1.5" stroke-linecap="round" stroke-linejoin="round"/>
<path d="M416.207 165.605C416.356 167.482 416.389 169.367 416.301 171.248C416.251 171.96 415.994 172.642 415.563 173.209C415.131 173.777 414.542 174.207 413.87 174.445C413.196 174.684 412.47 174.721 411.776 174.552C411.082 174.383 410.453 174.016 409.966 173.495" stroke="black" stroke-width="1.5" stroke-linecap="round" stroke-linejoin="round"/>
<path d="M409.852 167.079C410.142 168.913 410.237 170.773 410.137 172.627C410.087 173.433 409.735 174.19 409.149 174.745C408.564 175.301 407.788 175.613 406.982 175.619C406.176 175.625 405.394 175.325 404.8 174.778C404.206 174.231 403.842 173.48 403.782 172.675C403.38 168.172 402.586 163.713 401.411 159.348" stroke="black" stroke-width="1.5" stroke-linecap="round" stroke-linejoin="round"/>
<path d="M399.039 144.311C399.578 146.012 399.831 147.791 399.788 149.575C399.598 151.615 395.662 155.741 395.662 158.017C395.787 160.339 396.541 162.582 397.844 164.507" stroke="black" stroke-width="1.5" stroke-linecap="round" stroke-linejoin="round"/>
<path d="M406.814 164.23C409.896 163.281 420.093 160.673 423.271 160.104" stroke="black" stroke-width="1.5" stroke-linecap="round" stroke-linejoin="round"/>
<path d="M158.681 94.3199C156.6 93.1801 154.979 91.354 154.093 89.1529C157.408 89.6721 161.15 89.8593 162.285 88.6287C164.282 86.5444 164.894 81.6171 163.334 65.2399C161.915 65.9034 160.437 66.4298 158.918 66.8125C159.155 72.5536 157.206 72.7433 156.172 70.7015C154.22 66.8649 149.865 69.6581 153.659 75.5864C143.844 84.7148 128.053 98.2563 110.83 105.053" stroke="black" stroke-width="1.5" stroke-linecap="round" stroke-linejoin="round"/>
<path d="M425.591 142.366C417.104 99.1603 412.112 89.0585 402.969 80.6165C387.465 66.2463 369.678 64.8659 339.225 61.1716C335.813 60.7273 327.47 55.2308 321.395 49.6719" stroke="black" stroke-width="1.5" stroke-linecap="round" stroke-linejoin="round"/>
<path d="M407.032 215.779L443.455 208.048" stroke="black" stroke-width="1.5" stroke-linecap="round" stroke-linejoin="round"/>
<path d="M405.442 208.478L398.375 209.996L401.6 224.741L408.667 223.223L405.442 208.478Z" stroke="black" stroke-width="1.5" stroke-linecap="round" stroke-linejoin="round"/>
<path d="M448.977 199.232L441.91 200.75L445.088 215.487L452.154 213.969L448.977 199.232Z" stroke="black" stroke-width="1.5" stroke-linecap="round" stroke-linejoin="round"/>
<path d="M450.55 206.561L461.483 204.224L461.034 170.112" stroke="black" stroke-width="1.5" stroke-linecap="round" stroke-linejoin="round"/>
<path d="M399.943 217.326L389.05 219.598L375.528 188.305" stroke="black" stroke-width="1.5" stroke-linecap="round" stroke-linejoin="round"/>
<path d="M66.0099 223.276C66.0099 223.249 66.1047 214.36 66.1047 214.36C63.818 214.695 61.7515 215.908 60.3437 217.74C58.9358 219.572 58.2973 221.881 58.5639 224.178L59.9635 234.591L67.362 233.643L66.0099 223.276Z" stroke="black" stroke-width="1.5" stroke-linejoin="round"/>
<path d="M97.35 219.437C97.0772 217.278 96.0091 215.301 94.3546 213.888C92.5172 214.537 90.6049 214.951 88.6635 215.121C89.0653 216.868 89.1926 217.487 89.612 219.579C90.0014 219.969 90.098 221.748 91.2961 230.68L98.6947 229.731L97.35 219.437Z" stroke="black" stroke-width="1.5" stroke-linejoin="round"/>
</svg>
